<svg width="24" height="25" viewBox="0 0 24 25" fill="none" xmlns="http://www.w3.org/2000/svg">
<path d="M12 0.405762C8.74 0.405762 8.333 0.420762 7.053 0.477762C5.775 0.537762 4.905 0.738762 4.14 1.03576C3.351 1.34176 2.681 1.75276 2.014 2.41976C1.347 3.08676 0.935 3.75576 0.63 4.54576C0.333 5.31076 0.131 6.18076 0.072 7.45876C0.012 8.73876 0 9.14576 0 12.4058C0 15.6658 0.015 16.0728 0.072 17.3528C0.132 18.6298 0.333 19.5008 0.63 20.2658C0.936 21.0538 1.347 21.7248 2.014 22.3918C2.681 23.0578 3.35 23.4708 4.14 23.7758C4.906 24.0718 5.776 24.2748 7.053 24.3338C8.333 24.3938 8.74 24.4058 12 24.4058C15.26 24.4058 15.667 24.3908 16.947 24.3338C18.224 24.2738 19.095 24.0718 19.86 23.7758C20.648 23.4698 21.319 23.0578 21.986 22.3918C22.652 21.7248 23.065 21.0568 23.37 20.2658C23.666 19.5008 23.869 18.6298 23.928 17.3528C23.988 16.0728 24 15.6658 24 12.4058C24 9.14576 23.985 8.73876 23.928 7.45876C23.868 6.18176 23.666 5.30976 23.37 4.54576C23.064 3.75676 22.652 3.08676 21.986 2.41976C21.319 1.75276 20.651 1.34076 19.86 1.03576C19.095 0.738762 18.224 0.536762 16.947 0.477762C15.667 0.417762 15.26 0.405762 12 0.405762ZM12 2.56576C15.203 2.56576 15.585 2.58176 16.85 2.63676C18.02 2.69176 18.655 2.88576 19.077 3.05176C19.639 3.26876 20.037 3.52876 20.459 3.94776C20.878 4.36776 21.138 4.76676 21.355 5.32876C21.519 5.75076 21.715 6.38576 21.768 7.55576C21.825 8.82176 21.838 9.20176 21.838 12.4058C21.838 15.6098 21.823 15.9908 21.764 17.2558C21.703 18.4258 21.508 19.0608 21.343 19.4828C21.119 20.0448 20.864 20.4428 20.444 20.8648C20.025 21.2838 19.62 21.5438 19.064 21.7608C18.644 21.9248 17.999 22.1208 16.829 22.1738C15.555 22.2308 15.18 22.2438 11.97 22.2438C8.759 22.2438 8.384 22.2288 7.111 22.1698C5.94 22.1088 5.295 21.9138 4.875 21.7488C4.306 21.5248 3.915 21.2698 3.496 20.8498C3.075 20.4308 2.806 20.0258 2.596 19.4698C2.431 19.0498 2.237 18.4048 2.176 17.2348C2.131 15.9748 2.115 15.5858 2.115 12.3908C2.115 9.19476 2.131 8.80476 2.176 7.52976C2.237 6.35976 2.431 5.71576 2.596 5.29576C2.806 4.72576 3.075 4.33576 3.496 3.91476C3.915 3.49576 4.306 3.22576 4.875 3.01676C5.295 2.85076 5.926 2.65576 7.096 2.59576C8.371 2.55076 8.746 2.53576 11.955 2.53576L12 2.56576ZM12 6.24376C8.595 6.24376 5.838 9.00376 5.838 12.4058C5.838 15.8108 8.598 18.5678 12 18.5678C15.405 18.5678 18.162 15.8078 18.162 12.4058C18.162 9.00076 15.402 6.24376 12 6.24376ZM12 16.4058C9.79 16.4058 8 14.6158 8 12.4058C8 10.1958 9.79 8.40576 12 8.40576C14.21 8.40576 16 10.1958 16 12.4058C16 14.6158 14.21 16.4058 12 16.4058ZM19.846 6.00076C19.846 6.79576 19.2 7.44076 18.406 7.44076C17.611 7.44076 16.966 6.79476 16.966 6.00076C16.966 5.20676 17.612 4.56176 18.406 4.56176C19.199 4.56076 19.846 5.20676 19.846 6.00076Z" fill="#262E3F"/>
</svg>
