<svg width="50" height="50" viewBox="0 0 50 50" fill="none" xmlns="http://www.w3.org/2000/svg">
<path fill-rule="evenodd" clip-rule="evenodd" d="M25.5 0.00490037V3.75L25.125 3.75L25.1255 3.75036C25.0837 3.75012 25.0419 3.75 25 3.75C13.2639 3.75 3.75 13.2639 3.75 25C3.75 36.736 13.2639 46.25 25 46.25C36.736 46.25 46.25 36.736 46.25 25C46.25 21.497 45.4024 18.192 43.9011 15.2788L26.1991 28.2486L23.2513 26.0615L44.875 10L44.8926 10.2011L45 10.125L45.0294 10.0368C48.1512 14.2088 50 19.3885 50 25C50 38.8071 38.8071 50 25 50C11.1929 50 0 38.8071 0 25C0 11.1929 11.1929 0 25 0C25.1671 0 25.3337 0.00163852 25.5 0.00490037ZM33.125 25.75V36.5V36.75H33.25H36.625V23.125L33.125 25.75ZM15.125 36.75V14.875L24 22.125L21 24.625L18.75 22.625V36.75H15.125Z" fill="url(#paint0_linear_24_2043)"/>
<defs>
<linearGradient id="paint0_linear_24_2043" x1="0" y1="25" x2="50" y2="25" gradientUnits="userSpaceOnUse">
<stop stop-color="#AF5CD4"/>
<stop offset="1" stop-color="#EE3C9D"/>
</linearGradient>
</defs>
</svg>
